
<svg width="95" height="94" viewBox="0 0 95 94" fill="none" xmlns="http://www.w3.org/2000/svg">
<path d="M94.9981 46.4856C94.9981 72.162 73.9545 92.9713 47.9971 92.9713C22.0361 92.9713 0.996094 72.162 0.996094 46.4856C0.996094 20.8129 22.0361 0 47.9971 0C73.9545 0 94.9981 20.8129 94.9981 46.4856Z" fill="#EDAC98"/>
<path d="M15.644 58.3577C16.7576 50.4438 36.6008 40.0266 50.1526 41.5286C63.7008 43.0306 76.3667 51.8456 79.6065 58.3577C82.8498 64.8697 78.0878 88.3182 78.0878 88.3182H20.9483C20.9483 88.3182 13.7132 72.072 15.644 58.3577Z" fill="#161515"/>
<path d="M26.9262 41.2236C26.9262 41.2236 25.3063 38.3163 29.0558 33.8068C32.8017 29.301 50.8371 25.2922 60.1584 32.1046C69.4762 38.9171 70.6477 39.0673 70.0873 41.2236C69.5232 43.38 55.4978 52.6457 54.4853 56.7045C53.4693 60.7634 48.7074 67.6688 48.3892 67.676C48.0746 67.6832 44.1516 59.6584 41.0095 55.4529C37.8674 51.2439 26.9262 41.2236 26.9262 41.2236Z" fill="#161515"/>
<path d="M33.7137 30.401C33.5112 33.1046 36.2447 42.4239 39.1843 46.4327C42.1203 50.4415 46.4737 52.9447 49.0481 53.145C51.6189 53.3453 55.6613 50.3699 58.3984 45.0594C61.1319 39.7489 63.2941 29.9004 63.2941 29.9004L33.7137 30.401Z" fill="#FFB18F"/>
<path d="M63.0771 30.839C62.824 30.5064 62.5348 30.1989 62.2021 29.9199L33.7137 30.4027C33.5582 32.4804 35.1383 38.4632 37.2101 42.9405C40.4534 41.8712 43.7438 40.734 45.6673 39.8793C47.4897 39.0676 46.3977 37.3153 48.0573 37.0149C49.7206 36.7145 49.4169 39.722 50.8342 40.1225C51.843 40.405 56.3193 42.0643 59.2697 43.1765C61.0957 38.8602 62.5492 33.0776 63.0771 30.839Z" fill="#DB826A"/>
<path d="M27.25 40.1727C27.25 40.1727 32.2976 34.4617 46.9377 34.5618C61.5779 34.6584 68.7479 40.4552 68.7479 40.4552C68.7479 40.4552 55.8541 35.6132 45.9723 35.9637C37.5585 36.2605 27.25 40.1727 27.25 40.1727Z" fill="#FF6000"/>
<path d="M25.2008 41.1229C24.8501 41.0264 31.4813 19.18 40.235 13.1328C45.2501 9.67118 54.5823 9.76059 59.1381 13.5691C65.1113 18.5542 71.7028 40.9227 71.3991 41.6236C71.0954 42.3245 63.553 35.8053 48.0559 35.4119C32.2515 35.0114 26.3144 41.4233 25.2008 41.1229Z" fill="#353535"/>
<path d="M25.2031 41.1207C25.2031 41.1207 25.9516 39.6259 26.7868 39.9692C32.6371 42.3723 45.4187 54.0912 47.3785 60.4459C49.9095 68.6638 48.8067 73.4843 48.8067 73.4843C48.8067 73.4843 44.8583 62.8633 38.9827 55.4501C34.2931 49.5317 25.2031 41.1207 25.2031 41.1207Z" fill="#353535"/>
<path d="M71.4008 41.6249C71.4008 41.6249 70.3342 39.5686 69.6798 39.9191C64.22 42.8443 51.2937 54.1627 49.3412 60.4995C46.8102 68.7138 48.8061 73.4879 48.8061 73.4879C48.8061 73.4879 51.7638 63.2495 57.6393 55.8363C62.329 49.9179 71.4008 41.6249 71.4008 41.6249Z" fill="#353535"/>
<path d="M45.9799 42.1437C45.9799 42.1437 47.278 41.3534 47.9505 41.1925C48.4205 41.0816 50.3875 42.3404 50.1344 42.4906C49.8813 42.6443 45.7774 42.4941 45.9799 42.1437Z" fill="#DB826A"/>
<path d="M44.4262 46.8144C44.3177 46.5426 46.2774 45.9669 48.465 45.8989C50.6489 45.831 52.0554 46.0599 51.6974 46.253C51.4769 46.3746 49.763 46.2709 48.5011 46.371C47.2392 46.4675 44.7407 47.594 44.4262 46.8144Z" fill="#7C4639"/>
<path d="M44.147 45.7569C44.6026 46.018 43.2865 46.7582 43.8397 47.4091C44.5231 48.2066 45.2607 47.7596 45.2607 47.9598C45.2607 48.1601 44.2266 48.625 43.3371 47.4091C42.802 46.6832 43.5396 45.4065 44.147 45.7569Z" fill="#DB826A"/>
<path d="M49.3174 12.6895C43.8396 12.6895 39.0921 30.3553 37.9531 36.1772C40.7553 35.6337 44.0963 35.3082 48.0591 35.4084C52.2317 35.5121 55.8185 36.0628 58.8521 36.7995C57.9012 30.6021 56.6646 12.6895 49.3174 12.6895Z" fill="#444444"/>
<path d="M48.379 72.4039C47.8439 67.7765 46.0035 60.8281 40.193 54.5485C36.6676 50.7364 33.5617 48.3082 31.0234 46.7598C33.7316 49.4776 36.8195 52.7247 38.9781 55.4497C43.7255 61.4396 47.2147 69.518 48.379 72.4039Z" fill="#FF6000"/>
<path d="M19.3665 52.3944C12.5039 57.7478 4.43354 78.1959 3.21865 84.8081C2.00376 91.4238 24.8227 93.7948 28.9736 91.5883C33.1281 89.3819 26.6197 61.7637 24.1899 58.556C21.7566 55.3518 20.7839 51.2893 19.3665 52.3944Z" fill="#353535"/>
<path d="M57.639 55.8331C59.6204 53.3334 62.3828 50.4117 64.9102 47.8691C62.7263 49.4033 60.2098 51.5454 57.4329 54.5493C51.814 60.6215 49.9085 67.3159 49.3047 71.9362C50.3677 68.8 53.1518 61.4941 57.639 55.8331Z" fill="#474747"/>
<path d="M21.3537 64.2676C21.3537 64.2676 18.8227 71.384 17.2029 72.886C15.5794 74.3879 12.6434 73.2865 10.8175 74.5882C8.99513 75.8899 8.69141 79.7985 8.69141 79.7985C8.69141 79.7985 12.7591 76.7946 16.7509 78.2966C20.7463 79.7985 23.6859 76.8948 23.6859 76.8948L21.3537 64.2676Z" fill="#232323"/>
<path d="M21.7559 80.0758C21.7559 80.0758 15.9707 78.5953 13.6024 80.7016C11.9066 82.2036 11.9572 84.0095 11.9572 84.0095C11.9572 84.0095 13.3529 82.3896 15.1137 81.7888C17.7424 80.8947 23.6252 84.4816 21.2496 81.5027L21.7559 80.0758Z" fill="#2B2B2B"/>
<path d="M74.8476 52.3944C81.7102 57.7478 89.7806 78.1959 90.9991 84.8081C92.214 91.4238 69.395 93.7948 65.2405 91.5883C61.086 89.3819 67.5944 61.7637 70.0278 58.556C72.4575 55.3518 73.4338 51.2893 74.8476 52.3944Z" fill="#353535"/>
<path d="M72.8559 64.2676C72.8559 64.2676 75.3905 71.384 77.0104 72.886C78.6302 74.3879 81.5698 73.2865 83.3922 74.5882C85.2181 75.8899 85.5218 79.7985 85.5218 79.7985C85.5218 79.7985 81.4541 76.7946 77.4587 78.2966C73.4633 79.7985 70.5273 76.8948 70.5273 76.8948L72.8559 64.2676Z" fill="#232323"/>
<path d="M72.4491 80.0758C72.4491 80.0758 78.2343 78.5953 80.6063 80.7016C82.2984 82.2036 82.2514 84.0095 82.2514 84.0095C82.2514 84.0095 80.8557 82.3896 79.0949 81.7888C76.4662 80.8947 70.5798 84.4816 72.9554 81.5027L72.4491 80.0758Z" fill="#2B2B2B"/>
<path d="M82.7023 72.4049C82.7023 72.4049 81.7513 69.8301 79.929 69.1256C78.103 68.4247 75.4961 66.5723 75.4961 66.5723C75.4961 66.5723 76.4615 71.2355 77.4631 71.5824C79.8531 72.4049 82.7023 72.4049 82.7023 72.4049Z" fill="#2B2B2B"/>
<path d="M20.7461 59.6602H77.8857V92.4279H20.7461V59.6602Z" fill="#AAAAAA"/>
<path d="M20.7461 92.3867H77.8857V93.9995H20.7461V92.3867Z" fill="#8C8C8C"/>
<path d="M30.9961 91.9492H37.0742V92.5107H30.9961V91.9492Z" fill="#CECECE"/>
<path d="M61.5508 91.9492H67.6288V92.5107H61.5508V91.9492Z" fill="#CECECE"/>
<path d="M20.7461 59.7344H77.8857V60.4961H20.7461V59.7344Z" fill="#CECECE"/>
<path d="M11.5078 72.4049C11.5078 72.4049 12.4624 69.8301 14.2847 69.1256C16.107 68.4247 18.7176 66.5723 18.7176 66.5723C18.7176 66.5723 17.7486 71.2355 16.747 71.5824C14.3606 72.4049 11.5078 72.4049 11.5078 72.4049Z" fill="#2B2B2B"/>
<path d="M48.2081 71.6348H45.7422V73.9628H46.469V72.2785H48.2081V71.6348Z" fill="#474747"/>
<path d="M50.418 71.6348H52.8839V73.9628H52.1608V72.2785H50.418V71.6348Z" fill="#474747"/>
<path d="M50.418 78.2616H52.8839V75.9336H52.1608V77.6179H50.418V78.2616Z" fill="#474747"/>
<path d="M48.2081 78.2616H45.7422V75.9336H46.469V77.6179H48.2081V78.2616Z" fill="#474747"/>
</svg>
